<svg width="18" height="18" viewBox="0 0 18 18" fill="none" xmlns="http://www.w3.org/2000/svg">
<path d="M9.00131 0.666748C13.6038 0.666748 17.3346 4.39758 17.3346 9.00008C17.3346 13.6026 13.6038 17.3334 9.00131 17.3334C7.52863 17.3358 6.08186 16.9461 4.80965 16.2042L0.671314 17.3334L1.79798 13.1934C1.05556 11.9208 0.66552 10.4734 0.66798 9.00008C0.66798 4.39758 4.39881 0.666748 9.00131 0.666748ZM6.16131 5.08341L5.99465 5.09008C5.88675 5.09665 5.7813 5.125 5.68465 5.17341C5.59425 5.22461 5.51173 5.2886 5.43965 5.36341C5.33965 5.45758 5.28298 5.53925 5.22215 5.61841C4.91392 6.01917 4.74796 6.51118 4.75048 7.01675C4.75215 7.42508 4.85881 7.82258 5.02548 8.19425C5.36631 8.94591 5.92715 9.74175 6.66715 10.4792C6.84548 10.6567 7.02048 10.8351 7.20881 11.0009C8.1283 11.8105 9.22402 12.3943 10.4088 12.7059L10.8821 12.7784C11.0363 12.7867 11.1905 12.7751 11.3455 12.7676C11.5882 12.7551 11.8252 12.6893 12.0396 12.5751C12.1488 12.5189 12.2553 12.4577 12.3588 12.3917C12.3588 12.3917 12.3946 12.3684 12.463 12.3167C12.5755 12.2334 12.6446 12.1742 12.738 12.0767C12.8071 12.0051 12.8671 11.9209 12.913 11.8251C12.978 11.6892 13.043 11.4301 13.0696 11.2142C13.0896 11.0492 13.0838 10.9592 13.0813 10.9034C13.078 10.8142 13.0038 10.7217 12.923 10.6826L12.438 10.4651C12.438 10.4651 11.713 10.1492 11.2696 9.94758C11.2233 9.92733 11.1735 9.91574 11.123 9.91341C11.066 9.90756 11.0084 9.91397 10.954 9.93223C10.8997 9.95048 10.8499 9.98015 10.808 10.0192C10.8038 10.0176 10.748 10.0651 10.1455 10.7951C10.1109 10.8415 10.0633 10.8767 10.0086 10.896C9.95403 10.9153 9.89491 10.9178 9.83881 10.9034C9.78453 10.8889 9.73134 10.8705 9.67965 10.8484C9.57631 10.8051 9.54048 10.7884 9.46965 10.7584C8.99137 10.5497 8.54855 10.2677 8.15715 9.92258C8.05215 9.83091 7.95465 9.73091 7.85465 9.63425C7.5268 9.32027 7.24108 8.96509 7.00465 8.57758L6.95548 8.49841C6.92017 8.44522 6.89161 8.38783 6.87048 8.32758C6.83881 8.20508 6.92131 8.10675 6.92131 8.10675C6.92131 8.10675 7.12381 7.88508 7.21798 7.76508C7.30965 7.64841 7.38715 7.53508 7.43715 7.45425C7.53548 7.29592 7.56631 7.13341 7.51465 7.00758C7.28131 6.43758 7.03965 5.87008 6.79131 5.30675C6.74215 5.19508 6.59631 5.11508 6.46381 5.09925C6.41881 5.09425 6.37381 5.08925 6.32881 5.08591C6.2169 5.08035 6.10476 5.08147 5.99298 5.08925L6.16048 5.08258L6.16131 5.08341Z" fill="#F6F6F6"/>
</svg>
